<?xml version="1.0" standalone="no"?>
<!DOCTYPE svg PUBLIC "-//W3C//DTD SVG 20010904//EN"
 "http://www.w3.org/TR/2001/REC-SVG-20010904/DTD/svg10.dtd">
<svg version="1.0" xmlns="http://www.w3.org/2000/svg"
 width="512.000000pt" height="512.000000pt" viewBox="0 0 512.000000 512.000000"
 preserveAspectRatio="xMidYMid meet">

<g transform="translate(0.000000,512.000000) scale(0.100000,-0.100000)"
fill="#000000" stroke="none">
<path d="M1429 5091 l-24 -19 -3 -431 -3 -431 -132 0 c-104 0 -137 -3 -155
-16 l-22 -15 0 -413 c0 -407 0 -413 21 -432 18 -16 40 -20 155 -22 l134 -4 2
-1250 3 -1250 24 -19 c30 -24 62 -24 92 0 l24 19 3 1250 2 1250 134 4 c115 2
137 6 155 22 21 19 21 25 21 432 l0 413 -22 15 c-18 13 -51 16 -155 16 l-132
0 -3 431 -3 431 -24 19 c-13 10 -33 19 -46 19 -13 0 -33 -9 -46 -19z m291
-1326 l0 -305 -245 0 -245 0 0 305 0 305 245 0 245 0 0 -305z"/>
<path d="M2510 4680 c-20 -20 -20 -33 -20 -585 l0 -565 -139 0 c-139 0 -140 0
-160 -26 -21 -27 -21 -29 -21 -1111 l0 -1084 25 -24 c23 -24 29 -25 160 -25
l135 0 0 -380 c0 -367 1 -381 20 -400 11 -11 33 -20 50 -20 17 0 39 9 50 20
19 19 20 33 20 400 l0 380 135 0 c131 0 137 1 160 25 l25 24 0 1084 c0 1082 0
1084 -21 1111 -20 26 -21 26 -160 26 l-139 0 0 565 c0 552 0 565 -20 585 -11
11 -33 20 -50 20 -17 0 -39 -9 -50 -20z m300 -2285 l0 -995 -250 0 -250 0 0
995 0 995 250 0 250 0 0 -995z"/>
<path d="M4682 4637 l-22 -23 -2 -765 -3 -764 -143 -5 c-127 -4 -145 -7 -158
-24 -12 -17 -14 -142 -14 -791 0 -762 0 -771 20 -793 19 -21 30 -22 160 -22
l140 0 0 -475 c0 -462 1 -476 20 -495 26 -26 74 -26 100 0 19 19 20 33 20 495
l0 475 140 0 c127 0 142 2 160 20 20 20 20 33 20 793 0 651 -2 776 -14 793
-13 17 -31 20 -158 24 l-143 5 -3 764 -2 765 -22 23 c-12 13 -33 23 -48 23
-15 0 -36 -10 -48 -23z m298 -2372 l0 -675 -250 0 -250 0 0 675 0 675 250 0
250 0 0 -675z"/>
<path d="M336 3608 c-14 -19 -16 -64 -16 -294 l0 -272 -141 -4 c-134 -3 -142
-4 -160 -27 -18 -22 -19 -54 -19 -1045 l0 -1023 23 -21 c22 -20 33 -22 160
-22 l137 0 0 -345 c0 -332 1 -346 20 -365 26 -26 74 -26 100 0 19 19 20 33 20
365 l0 345 138 0 c132 0 140 1 160 23 l22 23 0 1021 c0 990 -1 1022 -19 1044
-18 23 -26 24 -160 27 l-141 4 0 274 c0 261 -1 275 -20 294 -28 28 -84 27
-104 -2z m304 -1643 l0 -925 -250 0 -250 0 0 925 0 925 250 0 250 0 0 -925z"/>
<path d="M3624 3249 c-55 -20 -54 -8 -54 -601 l0 -548 -126 0 c-120 0 -159 -7
-176 -34 -4 -6 -8 -385 -8 -843 l0 -832 22 -15 c18 -13 51 -16 155 -16 l132 0
3 -156 c3 -150 4 -157 27 -175 13 -10 33 -19 46 -19 13 0 33 9 46 19 23 18 24
25 27 175 l3 156 132 0 c104 0 137 3 155 16 l22 15 0 832 c0 458 -4 837 -8
843 -17 27 -56 34 -176 34 l-126 0 0 545 c0 385 -3 551 -11 569 -14 29 -55 47
-85 35z m266 -2019 l0 -730 -245 0 -245 0 0 730 0 730 245 0 245 0 0 -730z"/>
</g>
</svg>
