<?xml version="1.0" standalone="no"?>
<!DOCTYPE svg PUBLIC "-//W3C//DTD SVG 20010904//EN"
 "http://www.w3.org/TR/2001/REC-SVG-20010904/DTD/svg10.dtd">
<svg version="1.0" xmlns="http://www.w3.org/2000/svg"
 width="512.000000pt" height="512.000000pt" viewBox="0 0 512.000000 512.000000"
 preserveAspectRatio="xMidYMid meet">

<g transform="translate(0.000000,512.000000) scale(0.100000,-0.100000)"
fill="#000000" stroke="none">
<path d="M3998 3889 c-43 -22 -78 -81 -78 -129 0 -50 35 -107 80 -130 36 -19
59 -20 322 -20 l283 -1 -943 -939 c-519 -517 -948 -940 -952 -940 -4 0 -257
247 -561 549 -305 301 -568 555 -586 565 -42 21 -85 20 -131 -3 -46 -24 -1394
-1374 -1416 -1418 -61 -122 75 -258 197 -197 18 9 314 298 659 642 l627 626
228 -222 c125 -121 374 -368 553 -547 179 -180 342 -335 362 -346 46 -23 89
-24 131 -3 18 10 484 467 1037 1017 l1005 1000 5 -289 c4 -252 7 -293 23 -321
20 -38 82 -73 127 -73 50 0 107 35 130 80 19 38 20 58 20 521 0 480 0 481 -22
521 -14 24 -38 48 -60 59 -35 18 -65 19 -520 19 -461 -1 -485 -2 -520 -21z"/>
</g>
</svg>
